<?xml version="1.0" encoding="UTF-8"?>
<!-- Generator: Adobe Illustrator 22.0.1, SVG Export Plug-In . SVG Version: 6.00 Build 0)  -->
<svg version="1.1" xmlns="http://www.w3.org/2000/svg" xmlns:xlink="http://www.w3.org/1999/xlink" x="0px" y="0px" viewBox="0 0 534.144 123.5" enable-background="new 0 0 534.144 123.5" xml:space="preserve">
<defs>
    <style>
        #Ebene_5 polygon {
            fill: #6e2f6d;
        }

        #Ebene_4 polygon {
            fill: #7d3b80;
        }

        #Ebene_3 polygon {
            fill: #944091;
        }
    </style>
</defs>
<g id="Ebene_1">
	<g id="meta">
		<path fill="#FFFFFF" d="M239.72,71.024V24.856L223.34,71.024h-11.609l-16.379-46.168v46.168h-10.8V12.797h18.629l14.759,43.018    l15.12-43.018h17.819v58.228H239.72z"/>
		<path fill="#FFFFFF" d="M275.001,71.024V12.797h34.559v8.729h-23.22v15.029h21.329v8.73H286.34v17.009h24.029v8.729H275.001z"/>
		<path fill="#FFFFFF" d="M355.369,21.616v49.408H344.03V21.616h-16.02v-8.819h43.378v8.819H355.369z"/>
		<path fill="#FFFFFF" d="M422.059,71.024l-5.221-15.569h-20.789l-5.49,15.569H378.5l23.67-58.228h10.439l21.959,58.228H422.059z     M406.85,25.396l-7.65,21.509h14.76L406.85,25.396z"/>
	</g>
	<g id="construct">
		<path fill="#FFFFFF" d="M287.439,110.687c-9.158,0-12.519-5.797-12.519-14.367c0-7.562,3.024-14.157,12.687-14.157    c2.353,0,5.125,0.42,7.183,1.092l-1.638,4.453c-1.765-0.756-3.529-1.471-5.545-1.471c-5.335,0-7.226,3.739-7.226,10.04    c0,6.679,1.807,10.334,6.974,10.334c2.268,0,3.906-0.798,6.091-1.681l1.638,4.453C292.69,110.225,290.505,110.687,287.439,110.687    z"/>
		<path fill="#FFFFFF" d="M315.243,110.687c-9.788,0-12.813-6.133-12.813-14.283c0-7.981,3.36-14.241,12.854-14.241    c9.367,0,12.644,5.881,12.644,14.241C327.928,104.47,324.694,110.687,315.243,110.687z M315.243,86.238    c-4.999,0-7.352,3.025-7.352,10.166c0,7.478,2.311,10.208,7.352,10.208c5.209,0,7.225-3.445,7.225-10.208    C322.467,89.179,320.158,86.238,315.243,86.238z"/>
		<path fill="#FFFFFF" d="M352.412,109.889l-9.663-20.92v20.92h-5.041V82.71h7.855l9.579,20.919V82.71h5.209v27.179H352.412z"/>
		<path fill="#FFFFFF" d="M378.492,110.687c-2.353,0-5.839-0.672-8.149-1.302l1.639-4.453c2.016,0.756,4.326,1.681,6.553,1.681    c3.402,0,5.797-0.63,5.797-3.697c0-2.898-3.276-3.865-6.679-5.167c-3.613-1.386-7.31-3.192-7.31-8.107    c0-5.377,5.545-7.478,10.544-7.478c1.849,0,5.419,0.42,7.646,1.176l-1.639,4.453c-1.554-0.672-3.528-1.555-6.133-1.555    c-3.949,0-5.041,1.807-5.041,3.403c0,2.185,2.563,2.982,5.461,4.033c3.906,1.386,8.527,3.192,8.527,9.158    C389.708,109.385,384.079,110.687,378.492,110.687z"/>
		<path fill="#FFFFFF" d="M409.656,86.827v23.062h-5.293V86.827h-7.478V82.71h20.248v4.117H409.656z"/>
		<path fill="#FFFFFF" d="M440.106,109.889l-8.275-11.3h-1.177v11.3h-5.293V82.71h10.166c4.327,0,9.2,1.428,9.2,7.855    c0,3.654-1.639,7.057-6.722,7.855l8.569,11.468H440.106z M435.737,86.785h-5.083v7.729h5.125c2.437,0,3.571-1.681,3.571-3.949    C439.351,88.297,438.216,86.785,435.737,86.785z"/>
		<path fill="#FFFFFF" d="M467.196,110.687c-7.771,0-11.511-3.571-11.511-10.838V82.71h5.293v16.719    c0,6.091,2.814,7.184,6.218,7.184c3.318,0,5.671-1.807,5.671-7.184V82.71h5.293v17.223    C478.16,107.158,474.211,110.687,467.196,110.687z"/>
		<path fill="#FFFFFF" d="M500.459,110.687c-9.158,0-12.519-5.797-12.519-14.367c0-7.562,3.024-14.157,12.687-14.157    c2.353,0,5.125,0.42,7.183,1.092l-1.638,4.453c-1.765-0.756-3.529-1.471-5.545-1.471c-5.335,0-7.226,3.739-7.226,10.04    c0,6.679,1.807,10.334,6.974,10.334c2.268,0,3.906-0.798,6.091-1.681l1.638,4.453C505.71,110.225,503.525,110.687,500.459,110.687    z"/>
		<path fill="#FFFFFF" d="M526.666,86.827v23.062h-5.293V86.827h-7.478V82.71h20.248v4.117H526.666z"/>
	</g>
</g>
<g id="Ebene_3">
	<polygon fill="#FFFFFF" points="178.61,123.5 151.803,123.5 80.5,0 107.308,0 "/>
</g>
<g id="Ebene_4">
	<polygon fill="#FFFFFF" points="143.64,123.5 115.803,123.5 44.5,0 71.308,0  "/>
</g>
<g id="Ebene_5">
	<polygon fill="#FFFFFF" points="108.64,123.5 81.83,123.5  8.5,0  35.308,0"/>
</g>
</svg>